<svg id="Layer_2" data-name="Layer 2" xmlns="http://www.w3.org/2000/svg" xmlns:xlink="http://www.w3.org/1999/xlink" viewBox="0 0 1246.95 671.27"><defs><style>.cls-1{opacity:0.6;fill:url(#linear-gradient);}.cls-2{opacity:0.56;fill:url(#linear-gradient-2);}.cls-3{fill:#ff4b00;}.cls-4{fill:url(#New_Gradient_Swatch_1);}.cls-5{fill:url(#New_Gradient_Swatch_1-2);}.cls-6{fill:url(#New_Gradient_Swatch_1-3);}.cls-7{fill:url(#New_Gradient_Swatch_1-4);}.cls-8{fill:url(#New_Gradient_Swatch_1-5);}.cls-9{fill:url(#New_Gradient_Swatch_1-6);}.cls-10{fill:url(#New_Gradient_Swatch_1-7);}.cls-11{fill:url(#New_Gradient_Swatch_1-8);}.cls-12{fill:url(#New_Gradient_Swatch_1-9);}.cls-13{fill:url(#New_Gradient_Swatch_1-10);}.cls-14{fill:url(#New_Gradient_Swatch_1-11);}.cls-15{fill:url(#New_Gradient_Swatch_1-12);}.cls-16{fill:url(#New_Gradient_Swatch_1-13);}.cls-17{fill:url(#New_Gradient_Swatch_1-14);}.cls-18{fill:url(#New_Gradient_Swatch_1-15);}.cls-19{fill:url(#New_Gradient_Swatch_1-16);}.cls-20{fill:url(#New_Gradient_Swatch_1-17);}.cls-21{fill:url(#New_Gradient_Swatch_1-18);}.cls-22{fill:url(#New_Gradient_Swatch_1-19);}.cls-23{fill:url(#New_Gradient_Swatch_1-20);}.cls-24{fill:url(#New_Gradient_Swatch_1-21);}.cls-25{fill:url(#New_Gradient_Swatch_1-22);}.cls-26{fill:url(#New_Gradient_Swatch_1-23);}.cls-27{fill:url(#New_Gradient_Swatch_1-24);}.cls-28{fill:url(#New_Gradient_Swatch_1-25);}.cls-29{fill:url(#New_Gradient_Swatch_1-26);}.cls-30{fill:url(#New_Gradient_Swatch_1-27);}.cls-31{fill:url(#New_Gradient_Swatch_1-28);}.cls-32{fill:url(#New_Gradient_Swatch_1-29);}.cls-33{fill:url(#New_Gradient_Swatch_1-30);}.cls-34{fill:url(#New_Gradient_Swatch_1-31);}.cls-35{fill:url(#New_Gradient_Swatch_1-32);}.cls-36{fill:url(#New_Gradient_Swatch_1-33);}.cls-37{fill:url(#New_Gradient_Swatch_1-34);}.cls-38{fill:url(#New_Gradient_Swatch_1-35);}.cls-39{fill:url(#New_Gradient_Swatch_1-36);}</style><linearGradient id="linear-gradient" x1="612.35" y1="238.53" x2="934.08" y2="773.3" gradientTransform="translate(291.88 -303.56) rotate(30.89)" gradientUnits="userSpaceOnUse"><stop offset="0.61"/><stop offset="0.87" stop-color="#fff"/></linearGradient><linearGradient id="linear-gradient-2" x1="580.08" y1="134.18" x2="900.3" y2="802.69" gradientTransform="translate(291.88 -303.56) rotate(30.89)" gradientUnits="userSpaceOnUse"><stop offset="0"/><stop offset="1" stop-color="#fff"/></linearGradient><radialGradient id="New_Gradient_Swatch_1" cx="409.21" cy="132.99" r="50.75" gradientTransform="matrix(0.81, 0.59, 1.11, -0.43, -305.14, 181.79)" gradientUnits="userSpaceOnUse"><stop offset="0" stop-color="#fff"/><stop offset="1"/></radialGradient><radialGradient id="New_Gradient_Swatch_1-2" cx="519" cy="132.99" r="50.75" gradientTransform="matrix(0.81, 0.59, 1.11, -0.43, -299.74, 173.61)" xlink:href="#New_Gradient_Swatch_1"/><radialGradient id="New_Gradient_Swatch_1-3" cx="519" cy="237.11" r="50.75" gradientTransform="matrix(0.81, 0.59, 1.11, -0.43, -304.17, 163.45)" xlink:href="#New_Gradient_Swatch_1"/><radialGradient id="New_Gradient_Swatch_1-4" cx="627.33" cy="237.11" r="50.75" gradientTransform="matrix(0.81, 0.59, 1.11, -0.43, -298.84, 155.37)" xlink:href="#New_Gradient_Swatch_1"/><radialGradient id="New_Gradient_Swatch_1-5" cx="737.23" cy="237.11" r="50.75" gradientTransform="matrix(0.81, 0.59, 1.11, -0.43, -293.43, 147.18)" xlink:href="#New_Gradient_Swatch_1"/><radialGradient id="New_Gradient_Swatch_1-6" cx="847.38" cy="237.11" r="50.75" gradientTransform="matrix(0.81, 0.59, 1.11, -0.43, -288, 138.97)" xlink:href="#New_Gradient_Swatch_1"/><radialGradient id="New_Gradient_Swatch_1-7" cx="957.69" cy="237.11" r="50.75" gradientTransform="matrix(0.81, 0.59, 1.11, -0.43, -282.57, 130.75)" xlink:href="#New_Gradient_Swatch_1"/><radialGradient id="New_Gradient_Swatch_1-8" cx="627.33" cy="132.99" r="50.75" gradientTransform="matrix(0.81, 0.59, 1.11, -0.43, -294.41, 165.54)" xlink:href="#New_Gradient_Swatch_1"/><radialGradient id="New_Gradient_Swatch_1-9" cx="847.38" cy="132.99" r="50.75" gradientTransform="matrix(0.81, 0.59, 1.11, -0.43, -283.57, 149.14)" xlink:href="#New_Gradient_Swatch_1"/><radialGradient id="New_Gradient_Swatch_1-10" cx="957.69" cy="132.99" r="50.75" gradientTransform="matrix(0.81, 0.59, 1.11, -0.43, -278.14, 140.92)" xlink:href="#New_Gradient_Swatch_1"/><radialGradient id="New_Gradient_Swatch_1-11" cx="737.23" cy="132.99" r="50.75" gradientTransform="matrix(0.81, 0.59, 1.11, -0.43, -288.99, 157.35)" xlink:href="#New_Gradient_Swatch_1"/><radialGradient id="New_Gradient_Swatch_1-12" cx="519" cy="343.18" r="50.75" gradientTransform="matrix(0.81, 0.59, 1.11, -0.43, -308.68, 153.09)" xlink:href="#New_Gradient_Swatch_1"/><radialGradient id="New_Gradient_Swatch_1-13" cx="519" cy="449.05" r="50.75" gradientTransform="matrix(0.81, 0.59, 1.11, -0.43, -313.19, 142.76)" xlink:href="#New_Gradient_Swatch_1"/><radialGradient id="New_Gradient_Swatch_1-14" cx="519" cy="555.52" r="50.75" gradientTransform="matrix(0.81, 0.59, 1.11, -0.43, -317.72, 132.36)" xlink:href="#New_Gradient_Swatch_1"/><radialGradient id="New_Gradient_Swatch_1-15" cx="519" cy="662.55" r="50.75" gradientTransform="matrix(0.81, 0.59, 1.11, -0.43, -322.27, 121.91)" xlink:href="#New_Gradient_Swatch_1"/><radialGradient id="New_Gradient_Swatch_1-16" cx="627.33" cy="343.18" r="50.75" gradientTransform="matrix(0.81, 0.59, 1.11, -0.43, -303.35, 145.02)" xlink:href="#New_Gradient_Swatch_1"/><radialGradient id="New_Gradient_Swatch_1-17" cx="737.23" cy="343.18" r="50.75" gradientTransform="matrix(0.81, 0.59, 1.11, -0.43, -297.94, 136.83)" xlink:href="#New_Gradient_Swatch_1"/><radialGradient id="New_Gradient_Swatch_1-18" cx="847.38" cy="343.18" r="50.75" gradientTransform="matrix(0.81, 0.59, 1.11, -0.43, -292.52, 128.62)" xlink:href="#New_Gradient_Swatch_1"/><radialGradient id="New_Gradient_Swatch_1-19" cx="957.69" cy="343.18" r="50.75" gradientTransform="matrix(0.81, 0.59, 1.11, -0.43, -287.09, 120.4)" xlink:href="#New_Gradient_Swatch_1"/><radialGradient id="New_Gradient_Swatch_1-20" cx="627.33" cy="449.05" r="50.75" gradientTransform="matrix(0.81, 0.59, 1.11, -0.43, -307.86, 134.68)" xlink:href="#New_Gradient_Swatch_1"/><radialGradient id="New_Gradient_Swatch_1-21" cx="737.23" cy="449.05" r="50.75" gradientTransform="matrix(0.81, 0.59, 1.11, -0.43, -302.45, 126.49)" xlink:href="#New_Gradient_Swatch_1"/><radialGradient id="New_Gradient_Swatch_1-22" cx="847.38" cy="449.05" r="50.75" gradientTransform="matrix(0.81, 0.59, 1.11, -0.43, -297.02, 118.28)" xlink:href="#New_Gradient_Swatch_1"/><radialGradient id="New_Gradient_Swatch_1-23" cx="627.33" cy="555.52" r="50.75" gradientTransform="matrix(0.81, 0.59, 1.11, -0.43, -312.39, 124.29)" xlink:href="#New_Gradient_Swatch_1"/><radialGradient id="New_Gradient_Swatch_1-24" cx="737.23" cy="555.52" r="50.75" gradientTransform="matrix(0.81, 0.59, 1.11, -0.43, -306.98, 116.1)" xlink:href="#New_Gradient_Swatch_1"/><radialGradient id="New_Gradient_Swatch_1-25" cx="847.38" cy="662.55" r="50.75" gradientTransform="matrix(0.81, 0.59, 1.11, -0.43, -306.11, 97.44)" xlink:href="#New_Gradient_Swatch_1"/><radialGradient id="New_Gradient_Swatch_1-26" cx="847.38" cy="555.52" r="50.75" gradientTransform="matrix(0.81, 0.59, 1.11, -0.43, -301.55, 107.89)" xlink:href="#New_Gradient_Swatch_1"/><radialGradient id="New_Gradient_Swatch_1-27" cx="957.69" cy="662.55" r="50.75" gradientTransform="matrix(0.81, 0.59, 1.11, -0.43, -300.68, 89.22)" xlink:href="#New_Gradient_Swatch_1"/><radialGradient id="New_Gradient_Swatch_1-28" cx="957.69" cy="555.52" r="50.75" gradientTransform="matrix(0.81, 0.59, 1.11, -0.43, -296.12, 99.67)" xlink:href="#New_Gradient_Swatch_1"/><radialGradient id="New_Gradient_Swatch_1-29" cx="957.69" cy="449.05" r="50.75" gradientTransform="matrix(0.81, 0.59, 1.11, -0.43, -291.59, 110.06)" xlink:href="#New_Gradient_Swatch_1"/><radialGradient id="New_Gradient_Swatch_1-30" cx="627.33" cy="662.55" r="50.75" gradientTransform="matrix(0.81, 0.59, 1.11, -0.43, -316.94, 113.84)" xlink:href="#New_Gradient_Swatch_1"/><radialGradient id="New_Gradient_Swatch_1-31" cx="737.23" cy="662.55" r="50.75" gradientTransform="matrix(0.81, 0.59, 1.11, -0.43, -311.53, 105.65)" xlink:href="#New_Gradient_Swatch_1"/><radialGradient id="New_Gradient_Swatch_1-32" cx="409.21" cy="237.11" r="50.75" gradientTransform="matrix(0.81, 0.59, 1.11, -0.43, -309.57, 171.63)" xlink:href="#New_Gradient_Swatch_1"/><radialGradient id="New_Gradient_Swatch_1-33" cx="409.21" cy="343.18" r="50.75" gradientTransform="matrix(0.81, 0.59, 1.11, -0.43, -314.09, 161.27)" xlink:href="#New_Gradient_Swatch_1"/><radialGradient id="New_Gradient_Swatch_1-34" cx="409.21" cy="449.05" r="50.75" gradientTransform="matrix(0.81, 0.59, 1.11, -0.43, -318.59, 150.94)" xlink:href="#New_Gradient_Swatch_1"/><radialGradient id="New_Gradient_Swatch_1-35" cx="409.21" cy="555.52" r="50.75" gradientTransform="matrix(0.81, 0.59, 1.11, -0.43, -323.12, 140.54)" xlink:href="#New_Gradient_Swatch_1"/><radialGradient id="New_Gradient_Swatch_1-36" cx="409.21" cy="662.55" r="50.75" gradientTransform="matrix(0.81, 0.59, 1.11, -0.43, -327.68, 130.1)" xlink:href="#New_Gradient_Swatch_1"/></defs><path class="cls-1" d="M572,698.2,92,411c-31.56-18.87-25.22-49.81,14.14-69.11L690.29,55.57c39.36-19.3,96.85-19.64,128.4-.77L1298.76,342c31.55,18.88,25.22,49.82-14.14,69.12L700.43,697.44C661.07,716.74,603.58,717.08,572,698.2Z" transform="translate(-71.88 -40.87)"/><path class="cls-2" d="M573,690.11,104.22,409.7c-31.74-19-25.37-50.1,14.23-69.51L690.37,59.84c39.6-19.41,97.42-19.76,129.16-.77l468.77,280.4c31.74,19,25.37,50.11-14.23,69.52L702.15,689.34C662.56,708.75,604.73,709.09,573,690.11Z" transform="translate(-71.88 -40.87)"/><g id="pop"><path class="cls-3" d="M770.39,117.39c-22.62,11.09-55.66,11.29-73.8.44S682.1,89.2,704.72,78.11s55.67-11.29,73.8-.44S793,106.3,770.39,117.39Z" transform="translate(-71.88 -40.87)"/><path class="cls-3" d="M864.61,173.75C842,184.84,809,185,790.81,174.19s-14.49-28.63,8.13-39.72,55.67-11.29,73.8-.44S887.24,162.66,864.61,173.75Z" transform="translate(-71.88 -40.87)"/><path class="cls-3" d="M957.58,229.36c-22.63,11.09-55.67,11.29-73.8.44s-14.5-28.63,8.13-39.72,55.66-11.29,73.8-.44S980.2,218.27,957.58,229.36Z" transform="translate(-71.88 -40.87)"/><path class="cls-3" d="M1051.9,285.78c-22.63,11.09-55.67,11.28-73.81.44s-14.49-28.64,8.13-39.73,55.67-11.28,73.8-.43S1074.52,274.69,1051.9,285.78Z" transform="translate(-71.88 -40.87)"/><path class="cls-3" d="M1146.42,342.32c-22.62,11.09-55.66,11.29-73.8.44s-14.49-28.63,8.13-39.72,55.67-11.29,73.8-.44S1169.05,331.23,1146.42,342.32Z" transform="translate(-71.88 -40.87)"/><path class="cls-3" d="M1241.09,399c-22.63,11.09-55.67,11.28-73.8.43s-14.5-28.63,8.13-39.72,55.66-11.28,73.8-.44S1263.71,387.86,1241.09,399Z" transform="translate(-71.88 -40.87)"/><path class="cls-3" d="M1126.5,455.12c-22.63,11.09-55.67,11.28-73.81.44s-14.49-28.63,8.13-39.72,55.67-11.29,73.8-.44S1149.12,444,1126.5,455.12Z" transform="translate(-71.88 -40.87)"/><path class="cls-3" d="M1031.83,398.49c-22.62,11.09-55.67,11.29-73.8.44s-14.49-28.63,8.13-39.72,55.67-11.29,73.8-.44S1054.46,387.4,1031.83,398.49Z" transform="translate(-71.88 -40.87)"/><path class="cls-3" d="M937.3,342c-22.62,11.09-55.66,11.29-73.8.44s-14.49-28.63,8.13-39.72,55.67-11.29,73.8-.44S959.93,330.86,937.3,342Z" transform="translate(-71.88 -40.87)"/><path class="cls-3" d="M843,285.53c-22.63,11.09-55.67,11.29-73.81.44s-14.49-28.63,8.13-39.72,55.67-11.29,73.8-.44S865.61,274.44,843,285.53Z" transform="translate(-71.88 -40.87)"/><path class="cls-3" d="M750,229.92c-22.62,11.09-55.66,11.29-73.8.44s-14.49-28.63,8.13-39.72,55.67-11.28,73.8-.44S772.65,218.83,750,229.92Z" transform="translate(-71.88 -40.87)"/><path class="cls-3" d="M655.8,173.57c-22.62,11.09-55.66,11.28-73.8.43s-14.49-28.63,8.13-39.72,55.67-11.28,73.8-.44S678.43,162.48,655.8,173.57Z" transform="translate(-71.88 -40.87)"/><path class="cls-3" d="M541.81,229.44c-22.62,11.09-55.67,11.29-73.8.44s-14.5-28.63,8.13-39.72,55.66-11.29,73.8-.44S564.43,218.35,541.81,229.44Z" transform="translate(-71.88 -40.87)"/><path class="cls-3" d="M636,285.8c-22.62,11.09-55.67,11.29-73.8.44s-14.5-28.63,8.13-39.72,55.66-11.29,73.8-.44S658.65,274.71,636,285.8Z" transform="translate(-71.88 -40.87)"/><path class="cls-3" d="M729,341.41c-22.62,11.09-55.66,11.29-73.8.44s-14.49-28.63,8.13-39.72,55.67-11.29,73.8-.44S751.62,330.32,729,341.41Z" transform="translate(-71.88 -40.87)"/><path class="cls-3" d="M823.31,397.83c-22.62,11.09-55.67,11.28-73.8.44s-14.5-28.64,8.13-39.73,55.66-11.28,73.8-.43S845.93,386.74,823.31,397.83Z" transform="translate(-71.88 -40.87)"/><path class="cls-3" d="M917.84,454.37c-22.63,11.09-55.67,11.29-73.8.44s-14.5-28.63,8.13-39.72,55.66-11.29,73.8-.44S940.46,443.28,917.84,454.37Z" transform="translate(-71.88 -40.87)"/><path class="cls-3" d="M1012.5,511c-22.62,11.09-55.66,11.28-73.8.43s-14.49-28.63,8.13-39.72,55.67-11.28,73.8-.44S1035.13,499.91,1012.5,511Z" transform="translate(-71.88 -40.87)"/><path class="cls-3" d="M899.16,566.56c-22.62,11.09-55.67,11.28-73.8.43s-14.5-28.63,8.13-39.72,55.66-11.28,73.8-.44S921.78,555.47,899.16,566.56Z" transform="translate(-71.88 -40.87)"/><path class="cls-3" d="M804.5,509.93c-22.63,11.09-55.67,11.29-73.81.44s-14.49-28.63,8.13-39.72,55.67-11.29,73.8-.44S827.12,498.84,804.5,509.93Z" transform="translate(-71.88 -40.87)"/><path class="cls-3" d="M710,453.39c-22.63,11.09-55.67,11.28-73.8.44s-14.5-28.64,8.12-39.73,55.67-11.28,73.81-.43S732.59,442.3,710,453.39Z" transform="translate(-71.88 -40.87)"/><path class="cls-3" d="M615.65,397c-22.62,11.09-55.67,11.29-73.8.44s-14.5-28.63,8.13-39.72,55.66-11.29,73.8-.44S638.27,385.88,615.65,397Z" transform="translate(-71.88 -40.87)"/><path class="cls-3" d="M522.69,341.36c-22.63,11.09-55.67,11.29-73.81.44s-14.49-28.63,8.13-39.72,55.67-11.29,73.81-.44S545.31,330.27,522.69,341.36Z" transform="translate(-71.88 -40.87)"/><path class="cls-3" d="M428.47,285c-22.63,11.09-55.67,11.29-73.81.44s-14.49-28.63,8.13-39.72,55.67-11.29,73.81-.44S451.09,273.91,428.47,285Z" transform="translate(-71.88 -40.87)"/><path class="cls-3" d="M314.89,340.67c-22.62,11.09-55.66,11.29-73.8.44s-14.49-28.63,8.13-39.72,55.67-11.28,73.8-.44S337.52,329.58,314.89,340.67Z" transform="translate(-71.88 -40.87)"/><path class="cls-3" d="M409.12,397c-22.63,11.09-55.67,11.29-73.81.44s-14.49-28.63,8.13-39.72,55.67-11.29,73.8-.44S431.74,385.94,409.12,397Z" transform="translate(-71.88 -40.87)"/><path class="cls-3" d="M502.08,452.64c-22.63,11.09-55.67,11.29-73.8.44s-14.5-28.63,8.13-39.72,55.66-11.29,73.8-.44S524.7,441.55,502.08,452.64Z" transform="translate(-71.88 -40.87)"/><path class="cls-3" d="M596.4,509.06c-22.63,11.09-55.67,11.29-73.81.44s-14.49-28.63,8.13-39.72,55.67-11.29,73.81-.44S619,498,596.4,509.06Z" transform="translate(-71.88 -40.87)"/><path class="cls-3" d="M690.92,565.6c-22.62,11.09-55.66,11.29-73.8.44s-14.49-28.63,8.13-39.72,55.67-11.29,73.8-.44S713.55,554.51,690.92,565.6Z" transform="translate(-71.88 -40.87)"/><path class="cls-3" d="M785.59,622.23c-22.63,11.09-55.67,11.28-73.8.44s-14.5-28.64,8.13-39.73,55.66-11.28,73.8-.44S808.21,611.14,785.59,622.23Z" transform="translate(-71.88 -40.87)"/><path class="cls-3" d="M674.12,676.87c-22.63,11.09-55.67,11.29-73.8.44s-14.5-28.63,8.13-39.72,55.66-11.29,73.8-.44S696.74,665.78,674.12,676.87Z" transform="translate(-71.88 -40.87)"/><path class="cls-3" d="M579.45,620.24c-22.62,11.09-55.66,11.29-73.8.44s-14.49-28.63,8.13-39.72,55.67-11.29,73.8-.44S602.08,609.15,579.45,620.24Z" transform="translate(-71.88 -40.87)"/><path class="cls-3" d="M484.93,563.7c-22.63,11.09-55.67,11.29-73.8.44s-14.5-28.63,8.12-39.72,55.67-11.29,73.81-.44S507.55,552.61,484.93,563.7Z" transform="translate(-71.88 -40.87)"/><path class="cls-3" d="M390.61,507.28c-22.63,11.09-55.67,11.29-73.8.44s-14.5-28.63,8.13-39.72,55.66-11.29,73.8-.44S413.23,496.19,390.61,507.28Z" transform="translate(-71.88 -40.87)"/><path class="cls-3" d="M297.65,451.68C275,462.77,242,463,223.84,452.11s-14.49-28.63,8.13-39.72,55.67-11.28,73.8-.44S320.27,440.58,297.65,451.68Z" transform="translate(-71.88 -40.87)"/><path class="cls-3" d="M203.43,395.32c-22.63,11.09-55.67,11.28-73.81.44s-14.49-28.64,8.13-39.73,55.67-11.28,73.8-.44S226.05,384.23,203.43,395.32Z" transform="translate(-71.88 -40.87)"/></g><g id="Layer_2-2" data-name="Layer 2"><g id="Layer_1-2" data-name="Layer 1-2"><ellipse class="cls-4" cx="170.59" cy="375.67" rx="55.98" ry="29.56" transform="translate(-104.72 -24.15) rotate(-5.12)"/></g></g><g id="Layer_2-3" data-name="Layer 2"><g id="Layer_1-2-2" data-name="Layer 1-2"><ellipse class="cls-5" cx="264.81" cy="432.03" rx="55.98" ry="29.56" transform="translate(-109.38 -15.52) rotate(-5.12)"/></g></g><g id="Layer_2-4" data-name="Layer 2"><g id="Layer_1-2-3" data-name="Layer 1-2"><ellipse class="cls-6" cx="376.28" cy="377.39" rx="55.98" ry="29.56" transform="matrix(1, -0.09, 0.09, 1, -104.05, -5.79)"/></g></g><g id="Layer_2-5" data-name="Layer 2"><g id="Layer_1-2-4" data-name="Layer 1-2"><ellipse class="cls-7" cx="469.24" cy="433" rx="55.98" ry="29.56" transform="translate(-108.65 2.73) rotate(-5.12)"/></g></g><g id="Layer_2-6" data-name="Layer 2"><g id="Layer_1-2-5" data-name="Layer 1-2"><ellipse class="cls-8" cx="563.56" cy="489.42" rx="55.98" ry="29.56" transform="translate(-113.3 11.37) rotate(-5.12)"/></g></g><g id="Layer_2-7" data-name="Layer 2"><g id="Layer_1-2-6" data-name="Layer 1-2"><ellipse class="cls-9" cx="658.09" cy="545.96" rx="55.98" ry="29.56" transform="translate(-117.97 20.03) rotate(-5.12)"/></g></g><g id="Layer_2-8" data-name="Layer 2"><g id="Layer_1-2-7" data-name="Layer 1-2"><ellipse class="cls-10" cx="752.75" cy="602.59" rx="55.98" ry="29.56" transform="translate(-122.65 28.7) rotate(-5.12)"/></g></g><g id="Layer_2-9" data-name="Layer 2"><g id="Layer_1-2-8" data-name="Layer 1-2"><ellipse class="cls-11" cx="357.77" cy="487.64" rx="55.98" ry="29.56" transform="translate(-113.97 -7) rotate(-5.12)"/></g></g><g id="Layer_2-10" data-name="Layer 2"><g id="Layer_1-2-9" data-name="Layer 1-2"><ellipse class="cls-12" cx="546.62" cy="600.6" rx="55.98" ry="29.56" transform="translate(-123.29 10.3) rotate(-5.12)"/></g></g><g id="Layer_2-11" data-name="Layer 2"><g id="Layer_1-2-10" data-name="Layer 1-2"><ellipse class="cls-13" cx="641.28" cy="657.23" rx="55.98" ry="29.56" transform="translate(-127.97 18.97) rotate(-5.12)"/></g></g><g id="Layer_2-12" data-name="Layer 2"><g id="Layer_1-2-11" data-name="Layer 1-2"><ellipse class="cls-14" cx="452.09" cy="544.06" rx="55.98" ry="29.56" transform="translate(-118.62 1.64) rotate(-5.12)"/></g></g><g id="Layer_2-13" data-name="Layer 2"><g id="Layer_1-2-12" data-name="Layer 1-2"><ellipse class="cls-15" cx="489.85" cy="321.72" rx="55.98" ry="29.56" transform="translate(-98.63 4.12) rotate(-5.12)"/></g></g><g id="Layer_2-14" data-name="Layer 2"><g id="Layer_1-2-13" data-name="Layer 1-2"><ellipse class="cls-16" cx="603.19" cy="266.16" rx="55.98" ry="29.56" transform="translate(-93.22 14.01) rotate(-5.12)"/></g></g><g id="Layer_2-15" data-name="Layer 2"><g id="Layer_1-2-14" data-name="Layer 1-2"><ellipse class="cls-17" cx="717.19" cy="210.28" rx="55.98" ry="29.56" transform="translate(-87.78 23.96) rotate(-5.12)"/></g></g><g id="Layer_2-16" data-name="Layer 2"><g id="Layer_1-2-15" data-name="Layer 1-2"><ellipse class="cls-18" cx="831.78" cy="154.11" rx="55.98" ry="29.56" transform="translate(-82.31 33.96) rotate(-5.12)"/></g></g><g id="Layer_2-17" data-name="Layer 2"><g id="Layer_1-2-16" data-name="Layer 1-2"><ellipse class="cls-19" cx="582.81" cy="377.33" rx="55.98" ry="29.56" transform="translate(-103.23 12.64) rotate(-5.12)"/></g></g><g id="Layer_2-18" data-name="Layer 2"><g id="Layer_1-2-17" data-name="Layer 1-2"><ellipse class="cls-20" cx="677.13" cy="433.75" rx="55.98" ry="29.56" transform="translate(-107.88 21.28) rotate(-5.12)"/></g></g><g id="Layer_2-19" data-name="Layer 2"><g id="Layer_1-2-18" data-name="Layer 1-2"><ellipse class="cls-21" cx="771.66" cy="490.29" rx="55.98" ry="29.56" transform="translate(-112.55 29.94) rotate(-5.12)"/></g></g><g id="Layer_2-20" data-name="Layer 2"><g id="Layer_1-2-19" data-name="Layer 1-2"><ellipse class="cls-22" cx="866.32" cy="546.91" rx="55.98" ry="29.56" transform="translate(-117.23 38.61) rotate(-5.12)"/></g></g><g id="Layer_2-21" data-name="Layer 2"><g id="Layer_1-2-20" data-name="Layer 1-2"><ellipse class="cls-23" cx="696.16" cy="321.77" rx="55.98" ry="29.56" transform="translate(-97.82 22.53) rotate(-5.12)"/></g></g><g id="Layer_2-22" data-name="Layer 2"><g id="Layer_1-2-21" data-name="Layer 1-2"><ellipse class="cls-24" cx="790.47" cy="378.19" rx="55.98" ry="29.56" transform="translate(-102.47 31.17) rotate(-5.12)"/></g></g><g id="Layer_2-23" data-name="Layer 2"><g id="Layer_1-2-22" data-name="Layer 1-2"><ellipse class="cls-25" cx="885" cy="434.73" rx="55.98" ry="29.56" transform="translate(-107.14 39.83) rotate(-5.12)"/></g></g><g id="Layer_2-24" data-name="Layer 2"><g id="Layer_1-2-23" data-name="Layer 1-2"><ellipse class="cls-26" cx="810.15" cy="265.89" rx="55.98" ry="29.56" transform="translate(-92.38 32.48) rotate(-5.12)"/></g></g><g id="Layer_2-25" data-name="Layer 2"><g id="Layer_1-2-24" data-name="Layer 1-2"><ellipse class="cls-27" cx="904.47" cy="322.31" rx="55.98" ry="29.56" transform="translate(-97.03 41.12) rotate(-5.12)"/></g></g><g id="Layer_2-26" data-name="Layer 2"><g id="Layer_1-2-25" data-name="Layer 1-2"><ellipse class="cls-28" cx="1113.59" cy="322.68" rx="55.98" ry="29.56" transform="translate(-96.23 59.78) rotate(-5.12)"/></g></g><g id="Layer_2-27" data-name="Layer 2"><g id="Layer_1-2-26" data-name="Layer 1-2"><ellipse class="cls-29" cx="999" cy="378.85" rx="55.98" ry="29.56" transform="matrix(1, -0.09, 0.09, 1, -101.7, 49.78)"/></g></g><g id="Layer_2-28" data-name="Layer 2"><g id="Layer_1-2-27" data-name="Layer 1-2"><ellipse class="cls-30" cx="1208.25" cy="379.3" rx="55.98" ry="29.56" transform="translate(-100.91 68.45) rotate(-5.12)"/></g></g><g id="Layer_2-29" data-name="Layer 2"><g id="Layer_1-2-28" data-name="Layer 1-2"><ellipse class="cls-31" cx="1093.66" cy="435.48" rx="55.98" ry="29.56" transform="translate(-106.38 58.45) rotate(-5.12)"/></g></g><g id="Layer_2-30" data-name="Layer 2"><g id="Layer_1-2-29" data-name="Layer 1-2"><ellipse class="cls-32" cx="979.67" cy="491.35" rx="55.98" ry="29.56" transform="translate(-111.82 48.5) rotate(-5.12)"/></g></g><g id="Layer_2-31" data-name="Layer 2"><g id="Layer_1-2-30" data-name="Layer 1-2"><ellipse class="cls-33" cx="924.74" cy="209.72" rx="55.98" ry="29.56" transform="translate(-86.91 42.48) rotate(-5.12)"/></g></g><g id="Layer_2-32" data-name="Layer 2"><g id="Layer_1-2-31" data-name="Layer 1-2"><ellipse class="cls-34" cx="1019.06" cy="266.14" rx="55.98" ry="29.56" transform="translate(-91.56 51.12) rotate(-5.12)"/></g></g><g id="Layer_2-33" data-name="Layer 2"><g id="Layer_1-2-32" data-name="Layer 1-2"><ellipse class="cls-35" cx="282.06" cy="321.03" rx="55.98" ry="29.56" transform="translate(-99.4 -14.42) rotate(-5.12)"/></g></g><g id="Layer_2-34" data-name="Layer 2"><g id="Layer_1-2-33" data-name="Layer 1-2"><ellipse class="cls-36" cx="395.63" cy="265.36" rx="55.98" ry="29.56" transform="translate(-93.98 -4.51) rotate(-5.12)"/></g></g><g id="Layer_2-35" data-name="Layer 2"><g id="Layer_1-2-34" data-name="Layer 1-2"><ellipse class="cls-37" cx="508.97" cy="209.8" rx="55.98" ry="29.56" transform="translate(-88.57 5.38) rotate(-5.12)"/></g></g><g id="Layer_2-36" data-name="Layer 2"><g id="Layer_1-2-35" data-name="Layer 1-2"><ellipse class="cls-38" cx="622.97" cy="153.92" rx="55.98" ry="29.56" transform="translate(-83.13 15.33) rotate(-5.12)"/></g></g><g id="Layer_2-37" data-name="Layer 2"><g id="Layer_1-2-36" data-name="Layer 1-2"><ellipse class="cls-39" cx="737.56" cy="97.75" rx="55.98" ry="29.56" transform="translate(-77.66 25.33) rotate(-5.12)"/></g></g></svg>