<svg id="Layer_2" data-name="Layer 2" xmlns="http://www.w3.org/2000/svg" xmlns:xlink="http://www.w3.org/1999/xlink" viewBox="0 0 1246.95 672.67"><defs><style>.cls-1{opacity:0.6;fill:url(#linear-gradient);}.cls-2,.cls-3{opacity:0.56;}.cls-2{fill:url(#linear-gradient-2);}.cls-3{fill:url(#linear-gradient-3);}</style><linearGradient id="linear-gradient" x1="612.77" y1="239.22" x2="932.89" y2="771.32" gradientUnits="userSpaceOnUse"><stop offset="0.61"/><stop offset="0.87" stop-color="#fff"/></linearGradient><linearGradient id="linear-gradient-2" x1="595.3" y1="178.39" x2="869.39" y2="750.6" gradientUnits="userSpaceOnUse"><stop offset="0"/><stop offset="1" stop-color="#fff"/></linearGradient><linearGradient id="linear-gradient-3" x1="597.77" y1="168.98" x2="871.86" y2="741.19" xlink:href="#linear-gradient-2"/></defs><path class="cls-1" d="M1298.76,342,818.69,54.8c-31.55-18.87-89-18.53-128.4.77L106.1,341.93C66.74,361.23,60.4,392.17,92,411L572,698.2c31.56,18.88,89.05,18.54,128.41-.76l584.19-286.36C1324,391.78,1330.31,360.84,1298.76,342Zm-594-263.85c22.63-11.09,55.67-11.29,73.8-.44s14.5,28.63-8.13,39.72-55.66,11.29-73.8.44S682.1,89.2,704.72,78.11ZM843,285.53c-22.63,11.09-55.67,11.29-73.81.44s-14.49-28.63,8.13-39.72,55.67-11.29,73.8-.44S865.61,274.44,843,285.53Zm28.64,17.14c22.63-11.09,55.67-11.29,73.8-.44s14.5,28.63-8.13,39.72-55.66,11.29-73.8.44S849,313.76,871.63,302.67Zm-114,55.87c22.62-11.09,55.66-11.28,73.8-.43s14.49,28.63-8.13,39.72-55.67,11.28-73.8.44S735,369.63,757.64,358.54ZM729,341.41c-22.62,11.09-55.66,11.29-73.8.44s-14.49-28.63,8.13-39.72,55.67-11.29,73.8-.44S751.62,330.32,729,341.41Zm21-111.49c-22.62,11.09-55.66,11.29-73.8.44s-14.49-28.63,8.13-39.72,55.67-11.28,73.8-.44S772.65,218.83,750,229.92ZM655.8,173.57c-22.62,11.09-55.66,11.28-73.8.43s-14.49-28.63,8.13-39.72,55.67-11.28,73.8-.44S678.43,162.48,655.8,173.57Zm-11.64,72.51c18.13,10.85,14.49,28.63-8.13,39.72s-55.67,11.29-73.8.44-14.5-28.63,8.13-39.72S626,235.23,644.16,246.08ZM615.65,397c-22.62,11.09-55.67,11.29-73.8.44s-14.5-28.63,8.13-39.72,55.66-11.29,73.8-.44S638.27,385.88,615.65,397ZM541.81,229.44c-22.62,11.09-55.67,11.29-73.8.44s-14.5-28.63,8.13-39.72,55.66-11.29,73.8-.44S564.43,218.35,541.81,229.44ZM457,302.08c22.63-11.09,55.67-11.29,73.81-.44s14.49,28.63-8.13,39.72-55.67,11.29-73.81.44S434.39,313.17,457,302.08ZM428.47,285c-22.63,11.09-55.67,11.29-73.81.44s-14.49-28.63,8.13-39.72,55.67-11.29,73.81-.44S451.09,273.91,428.47,285Zm-85,72.75c22.63-11.09,55.67-11.29,73.8-.44s14.5,28.63-8.12,39.72-55.67,11.29-73.81.44S320.82,368.84,343.44,357.75Zm-28.55-17.08c-22.62,11.09-55.66,11.29-73.8.44s-14.49-28.63,8.13-39.72,55.67-11.28,73.8-.44S337.52,329.58,314.89,340.67ZM232,412.39c22.63-11.09,55.67-11.28,73.8-.44s14.5,28.63-8.12,39.73S242,463,223.84,452.11,209.35,423.48,232,412.39Zm93,55.61c22.62-11.09,55.66-11.29,73.8-.44s14.49,28.63-8.13,39.72-55.67,11.29-73.8.44S302.31,479.09,324.94,468Zm94.31,56.42c22.63-11.09,55.67-11.29,73.81-.44s14.49,28.63-8.13,39.72-55.67,11.29-73.8.44S396.63,535.51,419.25,524.42Zm82.83-71.78c-22.63,11.09-55.67,11.29-73.8.44s-14.5-28.63,8.13-39.72,55.66-11.29,73.8-.44S524.7,441.55,502.08,452.64Zm28.64,17.14c22.63-11.09,55.67-11.29,73.81-.44S619,498,596.4,509.06s-55.67,11.29-73.81.44S508.1,480.87,530.72,469.78Zm94.53,56.54c22.63-11.09,55.67-11.29,73.8-.44s14.5,28.63-8.13,39.72-55.66,11.29-73.8.44S602.63,537.41,625.25,526.32ZM710,453.39c-22.63,11.09-55.67,11.28-73.8.44s-14.5-28.64,8.12-39.73,55.67-11.28,73.81-.43S732.59,442.3,710,453.39Zm28.85,17.26c22.63-11.09,55.67-11.29,73.8-.44s14.5,28.63-8.12,39.72-55.67,11.29-73.81.44S716.2,481.74,738.82,470.65Zm94.67,56.62c22.62-11.09,55.66-11.28,73.8-.44s14.49,28.64-8.13,39.73-55.67,11.28-73.8.43S810.86,538.36,833.49,527.27Zm84.35-72.9c-22.63,11.09-55.67,11.29-73.8.44s-14.5-28.63,8.13-39.72,55.66-11.29,73.8-.44S940.46,443.28,917.84,454.37Zm29,17.34c22.63-11.09,55.67-11.28,73.8-.44s14.5,28.64-8.13,39.73-55.66,11.28-73.8.43S924.21,482.8,946.83,471.71Zm85-73.22c-22.62,11.09-55.67,11.29-73.8.44s-14.49-28.63,8.13-39.72,55.67-11.29,73.8-.44S1054.46,387.4,1031.83,398.49Zm29,17.35c22.63-11.1,55.67-11.29,73.8-.44s14.5,28.63-8.12,39.72-55.67,11.28-73.81.44S1038.2,426.93,1060.82,415.84Zm11.8-73.08c-18.13-10.85-14.49-28.63,8.13-39.72s55.67-11.29,73.8-.44,14.5,28.63-8.13,39.72S1090.76,353.61,1072.62,342.76Zm-20.72-57c-22.63,11.09-55.67,11.28-73.81.44s-14.49-28.64,8.13-39.73,55.67-11.28,73.8-.43S1074.52,274.69,1051.9,285.78Zm-94.32-56.42c-22.63,11.09-55.67,11.29-73.8.44s-14.5-28.63,8.13-39.72,55.66-11.29,73.8-.44S980.2,218.27,957.58,229.36Zm-93-55.61C842,184.84,809,185,790.81,174.19s-14.49-28.63,8.13-39.72,55.67-11.29,73.8-.44S887.24,162.66,864.61,173.75ZM137.75,356c22.63-11.09,55.67-11.28,73.8-.44s14.5,28.64-8.12,39.73-55.67,11.28-73.81.44S115.13,367.12,137.75,356Zm367.9,264.65c-18.13-10.84-14.49-28.63,8.13-39.72s55.67-11.29,73.8-.44,14.5,28.63-8.13,39.72S523.79,631.53,505.65,620.68Zm102.8,16.91c22.62-11.09,55.66-11.29,73.8-.44s14.49,28.63-8.13,39.72-55.67,11.29-73.8.44S585.82,648.68,608.45,637.59Zm111.47-54.65c22.62-11.09,55.66-11.28,73.8-.44s14.49,28.64-8.13,39.73-55.67,11.28-73.8.44S697.29,594,719.92,582.94Zm521.17-184c-22.63,11.09-55.67,11.28-73.8.43s-14.5-28.63,8.13-39.72,55.66-11.28,73.8-.44S1263.71,387.86,1241.09,399Z" transform="translate(-71.88 -40.87)"/><path id="volume" class="cls-2" d="M1285.82,348.88,817.05,68.48c-31.74-19-89.56-18.64-129.16.77L116,349.6c-39.6,19.41-46,50.53-14.23,69.51L570.51,699.52c31.74,19,89.57,18.64,129.16-.77L1271.59,418.4C1311.19,399,1317.56,367.86,1285.82,348.88Zm-228.28-93.41c18.14,10.84,14.5,28.63-8.12,39.72s-55.67,11.28-73.81.44S961.12,267,983.74,255.9,1039.41,244.62,1057.54,255.47ZM433.93,422.77c22.62-11.09,55.66-11.29,73.8-.44s14.49,28.63-8.13,39.72-55.67,11.29-73.8.44S411.3,433.86,433.93,422.77Zm-27.29-16.33c-22.63,11.09-55.67,11.29-73.81.44s-14.49-28.63,8.13-39.72,55.67-11.29,73.8-.44S429.26,395.35,406.64,406.44Zm113.57-55.67c-22.63,11.09-55.67,11.29-73.81.44s-14.49-28.63,8.13-39.72,55.67-11.29,73.81-.44S542.83,339.68,520.21,350.77ZM547.5,367.1c22.62-11.09,55.66-11.29,73.8-.44s14.49,28.63-8.13,39.72-55.67,11.29-73.8.44S524.87,378.19,547.5,367.1ZM528.24,479.19c22.63-11.09,55.67-11.29,73.81-.44s14.49,28.63-8.13,39.72-55.67,11.29-73.81.44S505.62,490.28,528.24,479.19Zm94.53,56.54c22.63-11.09,55.67-11.29,73.8-.44s14.5,28.63-8.13,39.72-55.66,11.29-73.8.44S600.15,546.82,622.77,535.73Zm84.72-72.93c-22.63,11.09-55.67,11.28-73.8.44s-14.5-28.64,8.12-39.73,55.67-11.28,73.81-.43S730.11,451.71,707.49,462.8ZM660.84,311.54c22.63-11.09,55.67-11.29,73.8-.44s14.5,28.63-8.13,39.72-55.66,11.29-73.8.44S638.22,322.63,660.84,311.54Zm75.5,168.52C759,469,792,468.77,810.14,479.62s14.5,28.63-8.12,39.72-55.67,11.29-73.81.44S713.72,491.15,736.34,480.06Zm84.49-72.82c-22.62,11.09-55.67,11.28-73.8.44S732.53,379,755.16,368s55.66-11.28,73.8-.43S843.45,396.15,820.83,407.24Zm-46-151.58c22.63-11.09,55.67-11.29,73.8-.44s14.5,28.63-8.12,39.72-55.67,11.29-73.81.44S752.21,266.75,774.83,255.66ZM849.69,424.5c22.62-11.09,55.66-11.29,73.8-.44s14.49,28.63-8.13,39.72-55.67,11.29-73.8.44S827.06,435.59,849.69,424.5Zm85.13-73.14c-22.62,11.09-55.66,11.29-73.8.44s-14.49-28.63,8.13-39.72,55.67-11.29,73.8-.44S957.45,340.27,934.82,351.36Zm28.86,17.26c22.62-11.09,55.67-11.29,73.8-.44s14.5,28.63-8.13,39.72-55.67,11.29-73.8.44S941.06,379.71,963.68,368.62Zm-.45-169.57c18.13,10.85,14.49,28.63-8.13,39.72s-55.67,11.29-73.8.44-14.5-28.63,8.13-39.72S945.09,188.2,963.23,199.05Zm-93-55.61c18.14,10.85,14.5,28.63-8.13,39.72s-55.66,11.29-73.8.44-14.49-28.63,8.13-39.72S852.13,132.59,870.26,143.44Zm-168-55.92c22.63-11.09,55.67-11.29,73.8-.44s14.5,28.63-8.13,39.72-55.66,11.29-73.8.44S679.62,98.61,702.24,87.52Zm53.43,112.09c18.14,10.85,14.5,28.63-8.13,39.72s-55.66,11.29-73.8.44-14.49-28.63,8.13-39.72S737.54,188.77,755.67,199.61Zm-168-55.92c22.62-11.09,55.67-11.28,73.8-.44S676,171.89,653.32,183s-55.66,11.28-73.8.43S565,154.78,587.65,143.69Zm54,111.8c18.13,10.85,14.49,28.63-8.13,39.72s-55.67,11.29-73.8.44-14.5-28.63,8.13-39.72S623.54,244.64,641.68,255.49Zm-168-55.92c22.62-11.09,55.66-11.29,73.8-.44s14.49,28.63-8.13,39.72-55.67,11.29-73.8.44S451,210.66,473.66,199.57ZM360.31,255.13c22.63-11.09,55.67-11.29,73.81-.44s14.49,28.63-8.13,39.72-55.67,11.29-73.81.44S337.69,266.22,360.31,255.13ZM246.74,310.8c22.63-11.09,55.67-11.28,73.8-.44S335,339,312.41,350.08s-55.66,11.29-73.8.44S224.12,321.89,246.74,310.8Zm-119.6,94.37c-18.13-10.85-14.49-28.64,8.13-39.73s55.67-11.28,73.8-.44,14.5,28.64-8.12,39.73S145.28,416,127.14,405.17Zm94.22,56.35c-18.13-10.84-14.49-28.63,8.13-39.72s55.67-11.28,73.8-.44,14.5,28.63-8.12,39.73S239.5,472.37,221.36,461.52Zm93,55.61c-18.14-10.85-14.5-28.63,8.13-39.72s55.66-11.29,73.8-.44,14.49,28.63-8.13,39.72S332.46,528,314.33,517.13Zm94.32,56.42c-18.14-10.85-14.5-28.63,8.12-39.72s55.67-11.29,73.81-.44,14.49,28.63-8.13,39.72S426.78,584.4,408.65,573.55Zm94.52,56.54c-18.13-10.84-14.49-28.63,8.13-39.72s55.67-11.29,73.8-.44,14.5,28.63-8.13,39.72S521.31,640.94,503.17,630.09Zm168.47,56.19c-22.63,11.09-55.67,11.29-73.8.44S583.34,658.09,606,647s55.66-11.29,73.8-.44S694.26,675.19,671.64,686.28Zm111.47-54.64c-22.63,11.09-55.67,11.28-73.8.44s-14.5-28.64,8.13-39.73,55.66-11.28,73.8-.44S805.73,620.55,783.11,631.64ZM896.68,576c-22.62,11.09-55.67,11.28-73.8.43s-14.5-28.63,8.13-39.72,55.66-11.28,73.8-.44S919.3,564.88,896.68,576ZM1010,520.41c-22.62,11.09-55.66,11.28-73.8.43s-14.49-28.63,8.13-39.72,55.67-11.28,73.8-.44S1032.65,509.32,1010,520.41Zm114-55.88c-22.63,11.09-55.67,11.28-73.81.44s-14.49-28.63,8.13-39.72,55.67-11.29,73.8-.44S1146.64,453.44,1124,464.53Zm-53.88-112.36c-18.13-10.85-14.49-28.63,8.13-39.72s55.67-11.29,73.8-.44,14.5,28.63-8.13,39.72S1088.28,363,1070.14,352.17Zm168.47,56.19c-22.63,11.09-55.67,11.28-73.8.43s-14.5-28.63,8.13-39.72,55.66-11.28,73.8-.44S1261.23,397.27,1238.61,408.36Z" transform="translate(-71.88 -40.87)"/><path class="cls-3" d="M1288.3,339.47,819.53,59.07c-31.74-19-89.56-18.64-129.16.77L118.45,340.19c-39.6,19.41-46,50.53-14.23,69.51L573,690.11c31.74,19,89.57,18.64,129.16-.77L1274.07,409C1313.67,389.58,1320,358.45,1288.3,339.47ZM1060,246.06c18.14,10.84,14.5,28.63-8.12,39.72s-55.67,11.28-73.81.44-14.49-28.64,8.13-39.73S1041.89,235.21,1060,246.06ZM436.41,413.36c22.62-11.09,55.66-11.29,73.8-.44s14.49,28.63-8.13,39.72-55.67,11.29-73.8.44S413.78,424.45,436.41,413.36ZM409.12,397c-22.63,11.09-55.67,11.29-73.81.44s-14.49-28.63,8.13-39.72,55.67-11.29,73.8-.44S431.74,385.94,409.12,397Zm113.57-55.67c-22.63,11.09-55.67,11.29-73.81.44s-14.49-28.63,8.13-39.72,55.67-11.29,73.81-.44S545.31,330.27,522.69,341.36ZM550,357.69c22.62-11.09,55.66-11.29,73.8-.44s14.49,28.63-8.13,39.72-55.67,11.29-73.8.44S527.35,368.78,550,357.69ZM530.72,469.78c22.63-11.09,55.67-11.29,73.81-.44S619,498,596.4,509.06s-55.67,11.29-73.81.44S508.1,480.87,530.72,469.78Zm94.53,56.54c22.63-11.09,55.67-11.29,73.8-.44s14.5,28.63-8.13,39.72-55.66,11.29-73.8.44S602.63,537.41,625.25,526.32ZM710,453.39c-22.63,11.09-55.67,11.28-73.8.44s-14.5-28.64,8.12-39.73,55.67-11.28,73.81-.43S732.59,442.3,710,453.39ZM663.32,302.13C686,291,719,290.84,737.12,301.69s14.5,28.63-8.13,39.72-55.66,11.29-73.8.44S640.7,313.22,663.32,302.13Zm75.5,168.52c22.63-11.09,55.67-11.29,73.8-.44s14.5,28.63-8.12,39.72-55.67,11.29-73.81.44S716.2,481.74,738.82,470.65Zm84.49-72.82c-22.62,11.09-55.67,11.28-73.8.44s-14.5-28.64,8.13-39.73,55.66-11.28,73.8-.43S845.93,386.74,823.31,397.83Zm-46-151.58c22.63-11.09,55.67-11.29,73.8-.44s14.5,28.63-8.12,39.72-55.67,11.29-73.81.44S754.69,257.34,777.31,246.25Zm74.86,168.84c22.62-11.09,55.66-11.29,73.8-.44s14.49,28.63-8.13,39.72-55.67,11.29-73.8.44S829.54,426.18,852.17,415.09ZM937.3,342c-22.62,11.09-55.66,11.29-73.8.44s-14.49-28.63,8.13-39.72,55.67-11.29,73.8-.44S959.93,330.86,937.3,342Zm28.86,17.26c22.62-11.09,55.67-11.29,73.8-.44s14.5,28.63-8.13,39.72-55.67,11.29-73.8.44S943.54,370.3,966.16,359.21Zm-.45-169.57c18.13,10.85,14.49,28.63-8.13,39.72s-55.67,11.29-73.8.44-14.5-28.63,8.13-39.72S947.57,178.79,965.71,189.64Zm-93-55.61c18.14,10.85,14.5,28.63-8.13,39.72s-55.66,11.29-73.8.44-14.49-28.63,8.13-39.72S854.61,123.18,872.74,134Zm-168-55.92c22.63-11.09,55.67-11.29,73.8-.44s14.5,28.63-8.13,39.72-55.66,11.29-73.8.44S682.1,89.2,704.72,78.11ZM758.15,190.2c18.14,10.85,14.5,28.63-8.13,39.72s-55.66,11.29-73.8.44-14.49-28.63,8.13-39.72S740,179.36,758.15,190.2Zm-168-55.92c22.62-11.09,55.67-11.28,73.8-.44s14.5,28.64-8.13,39.73-55.66,11.28-73.8.43S567.51,145.37,590.13,134.28Zm54,111.8c18.13,10.85,14.49,28.63-8.13,39.72s-55.67,11.29-73.8.44-14.5-28.63,8.13-39.72S626,235.23,644.16,246.08Zm-168-55.92c22.62-11.09,55.66-11.29,73.8-.44s14.49,28.63-8.13,39.72-55.67,11.29-73.8.44S453.51,201.25,476.14,190.16ZM362.79,245.72c22.63-11.09,55.67-11.29,73.81-.44s14.49,28.63-8.13,39.72-55.67,11.29-73.81.44S340.17,256.81,362.79,245.72ZM249.22,301.39c22.63-11.09,55.67-11.28,73.8-.44s14.5,28.63-8.13,39.72-55.66,11.29-73.8.44S226.6,312.48,249.22,301.39Zm-119.6,94.37c-18.13-10.85-14.49-28.64,8.13-39.73s55.67-11.28,73.8-.44,14.5,28.64-8.12,39.73S147.76,406.6,129.62,395.76Zm94.22,56.35c-18.13-10.84-14.49-28.63,8.13-39.72s55.67-11.28,73.8-.44,14.5,28.63-8.12,39.73S242,463,223.84,452.11Zm93,55.61c-18.14-10.85-14.5-28.63,8.13-39.72s55.66-11.29,73.8-.44,14.49,28.63-8.13,39.72S334.94,518.57,316.81,507.72Zm94.32,56.42c-18.14-10.85-14.5-28.63,8.12-39.72s55.67-11.29,73.81-.44,14.49,28.63-8.13,39.72S429.26,575,411.13,564.14Zm94.52,56.54c-18.13-10.84-14.49-28.63,8.13-39.72s55.67-11.29,73.8-.44,14.5,28.63-8.13,39.72S523.79,631.53,505.65,620.68Zm168.47,56.19c-22.63,11.09-55.67,11.29-73.8.44s-14.5-28.63,8.13-39.72,55.66-11.29,73.8-.44S696.74,665.78,674.12,676.87Zm111.47-54.64c-22.63,11.09-55.67,11.28-73.8.44s-14.5-28.64,8.13-39.73,55.66-11.28,73.8-.44S808.21,611.14,785.59,622.23Zm113.57-55.67c-22.62,11.09-55.67,11.28-73.8.43s-14.5-28.63,8.13-39.72,55.66-11.28,73.8-.44S921.78,555.47,899.16,566.56ZM1012.5,511c-22.62,11.09-55.66,11.28-73.8.43s-14.49-28.63,8.13-39.72,55.67-11.28,73.8-.44S1035.13,499.91,1012.5,511Zm114-55.88c-22.63,11.09-55.67,11.28-73.81.44s-14.49-28.63,8.13-39.72,55.67-11.29,73.8-.44S1149.12,444,1126.5,455.12Zm-53.88-112.36c-18.13-10.85-14.49-28.63,8.13-39.72s55.67-11.29,73.8-.44,14.5,28.63-8.13,39.72S1090.76,353.61,1072.62,342.76ZM1241.09,399c-22.63,11.09-55.67,11.28-73.8.43s-14.5-28.63,8.13-39.72,55.66-11.28,73.8-.44S1263.71,387.86,1241.09,399Z" transform="translate(-71.88 -40.87)"/></svg>